# xmcd
#
# Track frame offsets: 
#        150
#        15973
#        29883
#        42854
#        55501
#        70896
#        85314
#        102067
#        123311
#        142865
#        155271
#
# Disc length: 2287 seconds
#
# Revision: 1
# Processed by: cddbd v1.5.2PL0 Copyright (c) Steve Scherf et al.
# Submitted via: ExactAudioCopyFreeDBPlugin 1.0
#
DISCID=8108ed0b
DTITLE=Confederate Railroad - Cheap Thrills
DYEAR=2007
DGENRE=Country
TTITLE0=11 Months and 29 Days
TTITLE1=Hard Livin'
TTITLE2=Don't Rock The Jukebox
TTITLE3=Whiskey On Ice
TTITLE4=Cheap Thrills
TTITLE5=Georgia On A Fast Train
TTITLE6=Honky Tonk Heroes
TTITLE7=Trudy
TTITLE8=Please Come To Boston
TTITLE9=New Way To Light Up An Old Flame
TTITLE10=I Know A Little
EXTD=
EXTT0=
EXTT1=
EXTT2=
EXTT3=
EXTT4=
EXTT5=
EXTT6=
EXTT7=
EXTT8=
EXTT9=
EXTT10=
PLAYORDER=
